<svg width="200" height="200" viewBox="0 0 200 200" fill="none" xmlns="http://www.w3.org/2000/svg">
<path d="M0.5 199.5V0.5H199.5V199.5H0.5Z" stroke="#D6E3ED"/>
<path fill-rule="evenodd" clip-rule="evenodd" d="M53.2998 45.9004H108L133.9 71.8004V93.9004C130.9 92.0004 127.3 91.0004 123.5 91.0004C118 91.0004 113.1 93.2004 109.5 96.8004C105.9 100.4 103.7 105.4 103.7 110.8V116.3C101.8 116.7 99.9998 117.6 98.5998 119C96.7998 120.8 95.6998 123.2 95.6998 125.9V145H53.2998V45.9004Z" fill="#D6E3ED"/>
<path fill-rule="evenodd" clip-rule="evenodd" d="M93.5996 45.9004H108L133.9 71.8004V93.9004C130.9 92.0004 127.3 91.0004 123.5 91.0004C118 91.0004 113.1 93.2004 109.5 96.8004C105.9 100.4 103.7 105.4 103.7 110.8V116.3C101.8 116.7 99.9996 117.6 98.5996 119C96.7996 120.8 95.6996 123.2 95.6996 125.9V145H93.5996V45.9004Z" fill="#B3CEE3"/>
<path fill-rule="evenodd" clip-rule="evenodd" d="M105.5 121.799H109.4V110.799C109.4 102.999 115.8 96.6992 123.5 96.6992C131.3 96.6992 137.6 103.099 137.6 110.799V121.799H141.5C143.7 121.799 145.6 123.599 145.6 125.899V151.499C145.6 153.699 143.8 155.599 141.5 155.599H105.5C103.3 155.599 101.4 153.799 101.4 151.499V125.899C101.4 123.599 103.3 121.799 105.5 121.799ZM116.4 121.799H130.7V110.799C130.7 106.899 127.5 103.599 123.5 103.599C119.6 103.599 116.3 106.799 116.3 110.799V121.799H116.4Z" fill="#F3D316"/>
<path fill-rule="evenodd" clip-rule="evenodd" d="M123.5 121.8H130.7V110.8C130.7 106.9 127.5 103.6 123.5 103.6V96.5996C131.3 96.5996 137.6 103 137.6 110.7V121.7H141.5C143.7 121.7 145.6 123.5 145.6 125.8V151.4C145.6 153.6 143.8 155.5 141.5 155.5H123.5V121.8Z" fill="#F0C514"/>
<path fill-rule="evenodd" clip-rule="evenodd" d="M123.5 133.6C125.1 133.6 126.3 134.9 126.3 136.4C126.3 137.3 125.9 138.1 125.2 138.6V144C125.2 144.9 124.4 145.7 123.5 145.7C122.6 145.7 121.8 144.9 121.8 144V138.6C121.1 138.1 120.7 137.3 120.7 136.4C120.7 134.8 122 133.6 123.5 133.6Z" fill="#093494"/>
<path fill-rule="evenodd" clip-rule="evenodd" d="M80.7998 77.8008H119V81.5008H80.7998V77.8008ZM80.7998 109.101H103.7C103.7 109.701 103.6 110.201 103.6 110.801V112.801H80.7998V109.101ZM80.7998 93.4008H113.9C112.3 94.3008 110.8 95.4008 109.5 96.7008C109.4 96.8008 109.3 97.0008 109.1 97.1008H80.7998V93.4008Z" fill="#3F569B"/>
<path fill-rule="evenodd" clip-rule="evenodd" d="M93.5996 77.8008H119V81.5008H93.5996V77.8008ZM93.5996 112.901V109.201H103.8C103.8 109.801 103.7 110.301 103.7 110.901V112.901H93.5996ZM93.5996 97.2008V93.5008H113.9C112.3 94.4008 110.8 95.5008 109.5 96.8008C109.4 96.9008 109.3 97.1008 109.1 97.2008H93.5996Z" fill="#093494"/>
<path fill-rule="evenodd" clip-rule="evenodd" d="M72 80.2008L78.6 71.3008L81 73.1008L72.6 84.4008L66.5 79.8008L68.3 77.4008L72 80.2008Z" fill="#3F569B"/>
<path fill-rule="evenodd" clip-rule="evenodd" d="M72 95.9L78.6 87L81 88.8L72.6 100.1L66.5 95.5L68.3 93.1L72 95.9Z" fill="#3F569B"/>
<path fill-rule="evenodd" clip-rule="evenodd" d="M72 111.599L78.6 102.699L81 104.499L72.6 115.799L66.5 111.199L68.3 108.799L72 111.599Z" fill="#3F569B"/>
</svg>
