<svg width="30" height="30" viewBox="0 0 30 30" fill="none" xmlns="http://www.w3.org/2000/svg">
<path fill-rule="evenodd" clip-rule="evenodd" d="M30 15C30 6.75 23.25 0 15 0C6.75 0 0 6.75 0 15C0 22.5 5.475 28.725 12.675 29.85V19.35H8.85V15H12.675V11.7C12.675 7.95 14.925 5.85 18.375 5.85C20.025 5.85 21.75 6.15 21.75 6.15V9.825H19.875C18 9.825 17.4 10.95 17.4 12.15V15H21.525L20.85 19.35H17.325V29.85C24.525 28.725 30 22.5 30 15Z" fill="#1773EA"/>
<path fill-rule="evenodd" clip-rule="evenodd" d="M20.8516 19.35L21.5266 15H17.4016V12.15C17.4016 10.95 18.0016 9.82498 19.8766 9.82498H21.7516V6.14998C21.7516 6.14998 20.0266 5.84998 18.3766 5.84998C14.9266 5.84998 12.6766 7.94998 12.6766 11.7V15H8.85156V19.35H12.6766V29.85C13.4266 30 14.2516 30 15.0016 30C15.8266 30 16.5766 29.925 17.3266 29.85V19.35H20.8516Z" fill="white"/>
</svg>
