<svg width="30" height="30" viewBox="0 0 30 30" fill="none" xmlns="http://www.w3.org/2000/svg">
<path d="M0 15C0 23.2843 6.71573 30 15 30C23.2843 30 30 23.2843 30 15C30 6.71573 23.2843 0 15 0C6.71573 0 0 6.71573 0 15Z" fill="#45A4DC"/>
<path fill-rule="evenodd" clip-rule="evenodd" d="M6.2893 22.8H23.7093L16.9493 17.99H13.0493L6.2893 22.8ZM10.7093 14.025H14.9343V14.805H10.7093V14.025ZM10.7093 12.725H19.2243V13.505H10.7093V12.725ZM10.7093 11.36H19.2243V12.14H10.7093V11.36ZM23.9693 21.63L17.9243 17.34L23.9693 12.855V21.63ZM23.9693 11.555L15.6493 5.445C15.2593 5.185 14.6743 5.185 14.2843 5.445L6.0293 11.555L9.4093 14.09V10.97C9.4093 10.71 9.6043 10.45 9.9293 10.45H20.0693C20.3293 10.45 20.5893 10.645 20.5893 10.97V14.09L23.9693 11.555ZM6.0293 12.855L12.0743 17.34L6.0293 21.63V12.855Z" fill="white"/>
</svg>
