<svg width="30" height="30" viewBox="0 0 30 30" fill="none" xmlns="http://www.w3.org/2000/svg">
<path d="M0 15C0 23.2843 6.71573 30 15 30C23.2843 30 30 23.2843 30 15C30 6.71573 23.2843 0 15 0C6.71573 0 0 6.71573 0 15Z" fill="#45A4DC"/>
<path fill-rule="evenodd" clip-rule="evenodd" d="M22.0261 13.7732C22.0261 9.92574 18.9035 6.74738 15.0002 6.74738C11.1527 6.74738 7.97437 9.86998 7.97437 13.7732C7.97437 15.6691 8.69926 17.3977 9.926 18.6244L14.9445 23.8102L19.963 18.6244C21.2455 17.3977 22.0261 15.6691 22.0261 13.7732ZM15.0002 19.0705C12.1007 19.0705 9.70295 16.6728 9.70295 13.7732C9.70295 10.8737 12.1007 8.47596 15.0002 8.47596C17.8998 8.47596 20.2975 10.8737 20.2975 13.7732C20.2975 16.6728 17.8998 19.0705 15.0002 19.0705Z" fill="white"/>
<path fill-rule="evenodd" clip-rule="evenodd" d="M14.9996 9.92578C12.8807 9.92578 11.1521 11.6544 11.1521 13.7733C11.1521 15.8922 12.8807 17.6208 14.9996 17.6208C17.1185 17.6208 18.8471 15.8922 18.8471 13.7733C18.8471 11.6544 17.1185 9.92578 14.9996 9.92578Z" fill="white"/>
</svg>
