<svg style="position: relative;" width="60" height="68" viewBox="0 0 60 68" xmlns="http://www.w3.org/2000/svg" xmlns:xlink="http://www.w3.org/1999/xlink">
  <defs>
    <path d="M23.51 51.523a.5.5 0 0 1-.5.477c-.29 0-.51-.21-.52-.477-.145-3.168-1.756-5.217-4.832-6.147C7.53 42.968 0 33.863 0 23 0 10.297 10.297 0 23 0s23 10.297 23 23c0 10.863-7.53 19.968-17.658 22.376-3.076.93-4.687 2.98-4.83 6.147z" id="ae96eeecd750ec2a83543f00c9bc789d__b"></path>


    <filter x="-21.7%" y="-15.4%" width="143.5%" height="138.5%" filterUnits="objectBoundingBox" id="ae96eeecd750ec2a83543f00c9bc789d__a">
      <feGaussianBlur in="SourceGraphic" stdDeviation="3"></feGaussianBlur>
      <feOffset dy="2"></feOffset>
      <feComponentTransfer>
        <feFuncA type="linear" slope=".3"></feFuncA>
      </feComponentTransfer>
    </filter>
  </defs>
  <g fill="none" fill-rule="evenodd">
    <g fill-rule="nonzero" transform="translate(7 5)" fill="#f33">
      <use filter="url(#ae96eeecd750ec2a83543f00c9bc789d__a)" xlink:href="#ae96eeecd750ec2a83543f00c9bc789d__b"></use>
      <use xlink:href="#ae96eeecd750ec2a83543f00c9bc789d__b"></use>
    </g>
  </g>
    <path fill-rule="evenodd" clip-rule="evenodd" d="M10 18.2V23h11.4a.6.6 0 0 0 .6-.6V8.6a.6.6 0 0 0-.6-.6h-4.954l-.158 2H20v1h-3.79l-.159 2H20v1h-4.028l-.373 4.715a.303.303 0 0 1-.323.284.306.306 0 0 1-.276-.309V2.4a.4.4 0 0 0-.4-.4H14v-.6a.4.4 0 0 0-.4-.4H3.4a.4.4 0 0 0-.4.4V2h-.6a.4.4 0 0 0-.4.4v20a.6.6 0 0 0 .6.6H7v-4.8c0-.11.09-.2.2-.2h2.6c.11 0 .2.09.2.2zM5.5 15V9h2v6h-2zm4-6v6h2V9h-2zm-4-2V4h2v3h-2zm4-3v3h2V4h-2zM17 17v-1h3v1h-3z" fill="#fff"></path>
    <path d="M16.526 7l.079-1H19.6c.22 0 .4.18.4.4V7h-3.474z" fill="#fff"></path>
</svg>