<svg width="200" height="200" viewBox="0 0 200 200" fill="none" xmlns="http://www.w3.org/2000/svg">
<path d="M0.5 199.5V0.5H199.5V199.5H0.5Z" stroke="#D6E3ED"/>
<path fill-rule="evenodd" clip-rule="evenodd" d="M105.8 145.301V151.801C105.8 155.001 103.2 157.601 100 157.601C96.8002 157.601 94.2002 155.001 94.2002 151.801V145.301C96.1002 145.501 98.0002 145.701 100 145.701C102 145.601 103.9 145.501 105.8 145.301Z" fill="#F3D316"/>
<path fill-rule="evenodd" clip-rule="evenodd" d="M145.3 94.1992H151.8C155 94.1992 157.6 96.7992 157.6 99.9992C157.6 103.199 155 105.799 151.8 105.799H145.3C145.5 103.899 145.7 101.999 145.7 99.9992C145.6 97.9992 145.5 96.0992 145.3 94.1992Z" fill="#F3D316"/>
<path fill-rule="evenodd" clip-rule="evenodd" d="M42.4004 99.9992C42.4004 96.7992 45.0004 94.1992 48.2004 94.1992H54.7004C54.5004 96.0992 54.3004 97.9992 54.3004 99.9992C54.3004 101.999 54.4004 103.899 54.7004 105.799H48.2004C45.0004 105.799 42.4004 103.199 42.4004 99.9992Z" fill="#F3D316"/>
<path fill-rule="evenodd" clip-rule="evenodd" d="M136.1 127.9L140.7 132.5C143 134.8 143 138.4 140.7 140.7C138.4 143 134.8 143 132.5 140.7L127.9 136.1C129.4 134.9 130.9 133.6 132.3 132.3C133.7 130.9 134.9 129.4 136.1 127.9Z" fill="#F3D316"/>
<path fill-rule="evenodd" clip-rule="evenodd" d="M127.9 63.8992L132.5 59.2992C134.8 56.9992 138.4 56.9992 140.7 59.2992C143 61.5992 143 65.1992 140.7 67.4992L136.1 72.0992C134.9 70.5992 133.6 69.0992 132.3 67.6992C130.9 66.2992 129.4 65.0992 127.9 63.8992Z" fill="#F3D316"/>
<path fill-rule="evenodd" clip-rule="evenodd" d="M59.3002 140.7C57.0002 138.4 57.0002 134.8 59.3002 132.5L63.9002 127.9C65.1002 129.4 66.4002 130.9 67.7002 132.3C69.1002 133.7 70.5002 135 72.1002 136.1L67.5002 140.7C65.2002 143 61.5002 143 59.3002 140.7Z" fill="#F3D316"/>
<path fill-rule="evenodd" clip-rule="evenodd" d="M59.3002 59.2992C61.6002 56.9992 65.2002 56.9992 67.5002 59.2992L72.1002 63.8992C70.6002 65.0992 69.1002 66.3992 67.7002 67.6992C66.3002 69.0992 65.0002 70.4992 63.9002 72.0992L59.3002 67.4992C57.0002 65.1992 57.0002 61.4992 59.3002 59.2992Z" fill="#F3D316"/>
<path fill-rule="evenodd" clip-rule="evenodd" d="M100 42.4004C103.2 42.4004 105.8 45.0004 105.8 48.2004V54.7004C103.9 54.5004 102 54.3004 100 54.3004C98.0002 54.3004 96.1002 54.4004 94.2002 54.7004V48.2004C94.2002 45.0004 96.8002 42.4004 100 42.4004Z" fill="#F3D316"/>
<path fill-rule="evenodd" clip-rule="evenodd" d="M104.8 59.5V92.2C103.4 91.3 101.7 90.8 100 90.8C98.2002 90.8 96.6002 91.3 95.2002 92.2V59.5H104.8ZM104.8 107.7V140.4H95.2002V107.7C96.6002 108.6 98.3002 109.1 100 109.1C101.8 109.1 103.4 108.6 104.8 107.7Z" fill="#3F569B"/>
<path fill-rule="evenodd" clip-rule="evenodd" d="M104.8 59.5V92.2C103.4 91.3 101.7 90.8 100 90.8V59.5H104.8ZM104.8 107.7V140.4H100V109C101.8 109.1 103.4 108.6 104.8 107.7Z" fill="#093494"/>
<path fill-rule="evenodd" clip-rule="evenodd" d="M59.5 95.1992H92.2C91.3 96.5992 90.8 98.2992 90.8 99.9992C90.8 101.799 91.3 103.399 92.2 104.799H59.5V95.1992ZM107.7 95.1992H140.4V104.799H107.7C108.6 103.399 109.1 101.699 109.1 99.9992C109.1 98.1992 108.6 96.5992 107.7 95.1992Z" fill="#3F569B"/>
<path fill-rule="evenodd" clip-rule="evenodd" d="M59.5 95.1992H92.2C91.3 96.5992 90.8 98.2992 90.8 99.9992H59.5V95.1992ZM107.7 95.1992H140.4V99.9992H109C109.1 98.1992 108.6 96.5992 107.7 95.1992Z" fill="#093494"/>
<path fill-rule="evenodd" clip-rule="evenodd" d="M74.8 68L98 91.1C94.6 91.9 92 94.5 91.2 97.9L68 74.8L74.8 68ZM108.9 102L132.1 125.2L125.3 132L102 108.9C105.4 108.1 108.1 105.4 108.9 102Z" fill="#3F569B"/>
<path fill-rule="evenodd" clip-rule="evenodd" d="M74.8004 68L98.0004 91.1C96.3004 91.5 94.8004 92.3 93.6004 93.5L71.4004 71.4L74.8004 68ZM108.9 102L132.1 125.2L128.7 128.6L106.5 106.4C107.6 105.2 108.5 103.7 108.9 102Z" fill="#093494"/>
<path fill-rule="evenodd" clip-rule="evenodd" d="M68 125.2L91.1 102C91.9 105.4 94.5 108 97.9 108.8L74.8 132L68 125.2ZM102 91.1L125.2 68L132 74.8L108.9 98C108.1 94.6 105.4 91.9 102 91.1Z" fill="#3F569B"/>
<path fill-rule="evenodd" clip-rule="evenodd" d="M68 125.2L91.1 102C91.5 103.7 92.3 105.2 93.5 106.4L71.3 128.6L68 125.2ZM102 91.1L125.2 68L128.6 71.4L106.4 93.6C105.2 92.4 103.7 91.5 102 91.1Z" fill="#093494"/>
<path fill-rule="evenodd" clip-rule="evenodd" d="M100 88.6992C106.3 88.6992 111.3 93.7992 111.3 99.9992C111.3 106.299 106.2 111.299 100 111.299C93.7002 111.299 88.7002 106.199 88.7002 99.9992C88.7002 93.6992 93.7002 88.6992 100 88.6992ZM100 92.4992C95.8002 92.4992 92.5002 95.8992 92.5002 99.9992C92.5002 104.199 95.9002 107.499 100 107.499C104.2 107.499 107.5 104.099 107.5 99.9992C107.5 95.7992 104.2 92.4992 100 92.4992Z" fill="#F3D316"/>
<path fill-rule="evenodd" clip-rule="evenodd" d="M100 88.6992C106.3 88.6992 111.3 93.7992 111.3 99.9992C111.3 106.299 106.2 111.299 100 111.299V107.499C104.2 107.499 107.5 104.099 107.5 99.9992C107.5 95.7992 104.1 92.4992 100 92.4992V88.6992Z" fill="#F0C514"/>
<path fill-rule="evenodd" clip-rule="evenodd" d="M100 52.9004C126 52.9004 147.1 74.0004 147.1 100C147.1 126 126 147.1 100 147.1C74.0004 147.1 52.9004 126 52.9004 100C52.9004 74.0004 74.0004 52.9004 100 52.9004ZM100 64.0004C80.1004 64.0004 64.0004 80.1004 64.0004 100C64.0004 119.9 80.1004 136 100 136C119.9 136 136 119.9 136 100C136 80.1004 119.9 64.0004 100 64.0004Z" fill="#D6E3ED"/>
<path fill-rule="evenodd" clip-rule="evenodd" d="M100 52.9004C126 52.9004 147.1 74.0004 147.1 100C147.1 126 126 147.1 100 147.1V136C119.9 136 136 119.9 136 100C136 80.1004 119.9 64.0004 100 64.0004V52.9004Z" fill="#B3CEE3"/>
<path fill-rule="evenodd" clip-rule="evenodd" d="M99.9998 60.3008C121.9 60.3008 139.7 78.1008 139.7 100.001C139.7 121.901 121.9 139.701 99.9998 139.701C78.0998 139.701 60.2998 121.901 60.2998 100.001C60.2998 78.1008 78.0998 60.3008 99.9998 60.3008ZM99.9998 64.0008C80.0998 64.0008 63.9998 80.1008 63.9998 100.001C63.9998 119.901 80.0998 136.001 99.9998 136.001C119.9 136.001 136 119.901 136 100.001C136 80.1008 119.9 64.0008 99.9998 64.0008Z" fill="#B3CEE3"/>
<path fill-rule="evenodd" clip-rule="evenodd" d="M100 60.3008C121.9 60.3008 139.7 78.1008 139.7 100.001C139.7 121.901 121.9 139.701 100 139.701V136.001C119.9 136.001 136 119.901 136 100.001C136 80.1008 119.9 64.0008 100 64.0008V60.3008Z" fill="#D6E3ED"/>
</svg>
