<svg width="200" height="200" viewBox="0 0 200 200" fill="none" xmlns="http://www.w3.org/2000/svg">
<path d="M0.5 199.5V0.5H199.5V199.5H0.5Z" stroke="#D6E3ED"/>
<path fill-rule="evenodd" clip-rule="evenodd" d="M60.7002 131.301C54.7002 131.301 48.7002 129.001 44.1002 124.401C34.9002 115.201 34.9002 100.301 44.1002 91.2008C45.9002 89.4008 47.9002 88.0008 50.0002 86.9008C50.0002 68.3008 65.0002 53.3008 83.6002 53.3008C96.0002 53.3008 106.8 60.0008 112.6 69.9008C121.8 67.4008 132 69.7008 139.2 76.9008C141.8 79.5008 143.7 82.5008 145.1 85.6008C148.4 86.7008 151.4 88.6008 154 91.2008C163.2 100.401 163.2 115.301 154 124.401C149.4 129.001 143.4 131.301 137.4 131.301H125.9V116.701C125.9 114.001 124.8 111.601 123 109.801C121.6 108.401 119.9 107.501 117.9 107.101V101.601C117.9 96.1008 115.7 91.2008 112.1 87.6008C108.5 84.0008 103.5 81.8008 98.1002 81.8008C92.6002 81.8008 87.7002 84.0008 84.1002 87.6008C80.5002 91.2008 78.3002 96.2008 78.3002 101.601V107.101C76.4002 107.501 74.6002 108.401 73.2002 109.801C71.4002 111.601 70.3002 114.001 70.3002 116.701V131.301H60.7002Z" fill="#D6E3ED"/>
<path fill-rule="evenodd" clip-rule="evenodd" d="M97.8998 56.4004C104.1 59.3004 109.2 64.0004 112.6 69.8004C121.8 67.3004 132 69.6004 139.2 76.8004C141.8 79.4004 143.7 82.4004 145.1 85.5004C148.4 86.6004 151.4 88.5004 154 91.1004C163.2 100.3 163.2 115.2 154 124.3C149.4 128.9 143.4 131.2 137.4 131.2H125.9V116.6C125.9 113.9 124.8 111.5 123 109.7C121.6 108.3 119.9 107.4 117.9 107V101.5C117.9 96.0004 115.7 91.1004 112.1 87.5004C108.5 83.9004 103.5 81.7004 98.0998 81.7004H97.7998V56.4004H97.8998Z" fill="#B3CEE3"/>
<path fill-rule="evenodd" clip-rule="evenodd" d="M80.1 112.6H84V101.6C84 93.8 90.4 87.5 98.1 87.5C105.9 87.5 112.2 93.9 112.2 101.6V112.6H116.1C118.3 112.6 120.2 114.4 120.2 116.7V142.3C120.2 144.5 118.4 146.4 116.1 146.4H80.1C77.9 146.4 76 144.6 76 142.3V116.7C76 114.5 77.9 112.6 80.1 112.6ZM91 112.6H105.3V101.6C105.3 97.7 102.1 94.4 98.1 94.4C94.2 94.4 90.9 97.6 90.9 101.6V112.6H91Z" fill="#F3D316"/>
<path fill-rule="evenodd" clip-rule="evenodd" d="M98.0996 112.6H105.3V101.6C105.3 97.7004 102.1 94.4004 98.0996 94.4004V87.4004C105.9 87.4004 112.2 93.8004 112.2 101.5V112.5H116.1C118.3 112.5 120.2 114.3 120.2 116.6V142.2C120.2 144.4 118.4 146.3 116.1 146.3H98.0996V112.6Z" fill="#F0C514"/>
<path fill-rule="evenodd" clip-rule="evenodd" d="M98.0998 124.4C99.6998 124.4 100.9 125.7 100.9 127.2C100.9 128.1 100.5 128.9 99.7998 129.4V134.8C99.7998 135.7 98.9998 136.5 98.0998 136.5C97.1998 136.5 96.3998 135.7 96.3998 134.8V129.4C95.6998 128.9 95.2998 128.1 95.2998 127.2C95.2998 125.7 96.5998 124.4 98.0998 124.4Z" fill="#093494"/>
</svg>
