<svg width="30" height="30" viewBox="0 0 30 30" fill="none" xmlns="http://www.w3.org/2000/svg">
<path fill-rule="evenodd" clip-rule="evenodd" d="M15 30C23.2843 30 30 23.2843 30 15C30 6.71573 23.2843 0 15 0C6.71573 0 0 6.71573 0 15C0 23.2843 6.71573 30 15 30Z" fill="#007EBB"/>
<path fill-rule="evenodd" clip-rule="evenodd" d="M24.5833 23.75H20.8164V17.3341C20.8164 15.575 20.148 14.592 18.7557 14.592C17.241 14.592 16.4497 15.615 16.4497 17.3341V23.75H12.8194V11.5278H16.4497V13.1741C16.4497 13.1741 17.5412 11.1544 20.1349 11.1544C22.7273 11.1544 24.5833 12.7375 24.5833 16.0117V23.75ZM8.48855 9.9274C7.25201 9.9274 6.25 8.91753 6.25 7.67204C6.25 6.42656 7.25201 5.41669 8.48855 5.41669C9.7251 5.41669 10.7265 6.42656 10.7265 7.67204C10.7265 8.91753 9.7251 9.9274 8.48855 9.9274ZM6.61404 23.75H10.3995V11.5278H6.61404V23.75Z" fill="white"/>
</svg>
