<svg width="30" height="30" viewBox="0 0 30 30" fill="none" xmlns="http://www.w3.org/2000/svg">
<path fill-rule="evenodd" clip-rule="evenodd" d="M15 0C23.25 0 30 6.75 30 15C30 23.25 23.25 30 15 30C6.75 30 0 23.25 0 15C0 6.75 6.75 0 15 0Z" fill="url(#paint0_radial_106_2719)"/>
<path fill-rule="evenodd" clip-rule="evenodd" d="M20.475 10.5C20.475 11.1 20.025 11.55 19.425 11.55C18.825 11.55 18.375 11.1 18.375 10.5C18.375 9.90002 18.825 9.45002 19.425 9.45002C20.025 9.52502 20.475 9.97502 20.475 10.5ZM15 12.075C13.425 12.075 12.15 13.35 12.15 14.925C12.15 16.5 13.425 17.775 15 17.775C16.575 17.775 17.85 16.5 17.85 14.925C17.85 13.35 16.575 12.075 15 12.075ZM19.35 14.925C19.35 12.525 17.4 10.575 15 10.575C12.6 10.575 10.65 12.525 10.65 14.925C10.65 17.325 12.6 19.275 15 19.275C17.4 19.275 19.35 17.325 19.35 14.925ZM18.3 23.1C20.85 23.1 22.875 21 22.875 18.525V11.475C22.875 8.92502 20.775 6.90002 18.3 6.90002H11.7C9.15 6.90002 7.125 9.00002 7.125 11.475V18.525C7.125 21.075 9.225 23.1 11.7 23.1H18.3Z" fill="white"/>
<defs>
<radialGradient id="paint0_radial_106_2719" cx="0" cy="0" r="1" gradientUnits="userSpaceOnUse" gradientTransform="translate(8.71822 29.9252) scale(30.3007)">
<stop stop-color="#FFD773"/>
<stop offset="0.25" stop-color="#F4A654"/>
<stop offset="0.38" stop-color="#F15A3A"/>
<stop offset="0.55" stop-color="#D64566"/>
<stop offset="0.7" stop-color="#C22C87"/>
<stop offset="0.85" stop-color="#96569D"/>
<stop offset="0.99" stop-color="#5D6BB2"/>
<stop offset="1" stop-color="#5D6BB2"/>
</radialGradient>
</defs>
</svg>
