<svg width="30" height="30" viewBox="0 0 30 30" fill="none" xmlns="http://www.w3.org/2000/svg">
<path d="M15 30C23.2843 30 30 23.2843 30 15C30 6.71573 23.2843 0 15 0C6.71573 0 0 6.71573 0 15C0 23.2843 6.71573 30 15 30Z" fill="url(#paint0_linear_106_2734)"/>
<path fill-rule="evenodd" clip-rule="evenodd" d="M19.7984 16.65C19.5734 16.5 18.3734 15.975 18.1484 15.9C17.9234 15.825 17.7734 15.75 17.6234 16.05C17.4734 16.35 17.0234 16.8 16.8734 16.95C16.7234 17.1 16.5734 17.1 16.3484 17.025C16.1234 16.875 15.3734 16.65 14.4734 15.825C13.7984 15.225 13.2734 14.4 13.1234 14.175C12.9734 13.95 13.1234 13.8 13.1984 13.725C13.2734 13.65 13.4234 13.425 13.5734 13.275C13.7234 13.125 13.7234 13.05 13.7984 12.9C13.8734 12.75 13.8734 12.6 13.7984 12.45C13.7234 12.3 13.2734 11.175 13.0484 10.65C12.8234 10.2 12.6734 10.275 12.5234 10.275C12.3734 10.275 12.2234 10.275 12.0734 10.275C11.9234 10.275 11.6234 10.35 11.4734 10.575C11.2484 10.8 10.6484 11.4 10.6484 12.525C10.6484 13.725 11.4734 14.85 11.6234 15C11.7734 15.15 13.2734 17.55 15.6734 18.6C16.2734 18.825 16.6484 18.975 17.0234 19.125C17.6234 19.275 18.1484 19.275 18.5234 19.2C18.9734 19.125 19.9484 18.6 20.0984 18.075C20.3234 17.55 20.3234 17.025 20.2484 16.95C20.2484 16.875 20.0234 16.8 19.7984 16.65Z" fill="white"/>
<path fill-rule="evenodd" clip-rule="evenodd" d="M22.2008 7.95005C20.4008 6.15005 18.0008 5.17505 15.4508 5.17505C10.2758 5.17505 6.00078 9.45005 6.00078 14.7C6.00078 16.35 6.45078 18 7.27578 19.425L5.92578 24.375L10.9508 23.025C12.3758 23.775 13.8758 24.15 15.5258 24.15C20.7758 24.15 25.0508 19.875 25.0508 14.625C24.9758 12.15 24.0008 9.75005 22.2008 7.95005ZM15.4508 22.5751C14.0258 22.5751 12.6008 22.2001 11.4008 21.4501L11.1008 21.3L8.10078 22.05L8.92578 19.125L8.70078 18.825C7.87578 17.55 7.50078 16.125 7.50078 14.625C7.57578 10.35 11.1008 6.75005 15.5258 6.75005C17.6258 6.75005 19.6508 7.57505 21.1508 9.07505C22.6508 10.575 23.4758 12.525 23.4758 14.7C23.4008 19.05 19.8758 22.5751 15.4508 22.5751Z" fill="white"/>
<defs>
<linearGradient id="paint0_linear_106_2734" x1="15.0002" y1="27.8192" x2="15.0002" y2="-2.181" gradientUnits="userSpaceOnUse">
<stop stop-color="#77CD50"/>
<stop offset="1" stop-color="#A0FB83"/>
</linearGradient>
</defs>
</svg>
