<svg width="30" height="30" viewBox="0 0 30 30" fill="none" xmlns="http://www.w3.org/2000/svg">
<path d="M15 30C23.2843 30 30 23.2843 30 15C30 6.71573 23.2843 0 15 0C6.71573 0 0 6.71573 0 15C0 23.2843 6.71573 30 15 30Z" fill="#00A2E0"/>
<path fill-rule="evenodd" clip-rule="evenodd" d="M6.75073 14.8507C11.1006 12.9758 14.0254 11.7008 15.5254 11.1008C19.6502 9.37592 20.5502 9.07593 21.1501 9.07593C21.3001 9.07593 21.5251 9.07593 21.7501 9.22592C21.9001 9.37592 21.9751 9.52591 21.9751 9.60091C21.9751 9.7509 22.0501 9.97589 21.9751 10.2009C21.7501 12.6008 20.7752 18.3005 20.2502 21.0004C20.0252 22.1254 19.6502 22.5004 19.2002 22.5004C18.3003 22.5754 17.7003 21.9004 16.8003 21.3754C15.4504 20.5505 14.7754 19.9505 13.4255 19.1255C11.9255 18.1506 12.9005 17.6256 13.7254 16.7256C13.9504 16.5006 17.7753 12.9758 17.8503 12.6758C17.8503 12.6758 17.8503 12.4508 17.7753 12.4508C17.7003 12.3758 17.5503 12.3758 17.4753 12.4508C17.3253 12.4508 15.2254 13.8757 11.1755 16.6506C10.5756 17.0256 10.0506 17.2506 9.52562 17.2506C9.00064 17.2506 7.95068 16.9506 7.20071 16.7256C6.30075 16.4256 5.55078 16.2756 5.55078 15.7507C5.70078 15.3757 6.07576 15.1507 6.75073 14.8507Z" fill="white"/>
</svg>
