<svg width="30" height="30" viewBox="0 0 30 30" fill="none" xmlns="http://www.w3.org/2000/svg">
<path d="M0 15C0 23.2843 6.71573 30 15 30C23.2843 30 30 23.2843 30 15C30 6.71573 23.2843 0 15 0C6.71573 0 0 6.71573 0 15Z" fill="#45A4DC"/>
<path fill-rule="evenodd" clip-rule="evenodd" d="M14.9394 11.5276C14.6348 11.5276 14.3911 11.3449 14.3911 11.0403C14.3911 10.7357 14.5739 10.492 14.8785 10.492C15.4877 10.4311 16.0968 10.5529 16.706 10.7357C17.2543 10.9184 17.8026 11.284 18.229 11.7104C18.6554 12.1368 19.0209 12.6851 19.2037 13.2334C19.4474 13.8425 19.5083 14.4517 19.4474 15.0609C19.4474 15.3655 19.2037 15.5483 18.8991 15.5483C18.5945 15.5483 18.4118 15.3046 18.4118 15C18.4118 14.5127 18.3508 14.0253 18.229 13.5989C18.0462 13.1724 17.8026 12.746 17.498 12.4414C17.1325 12.0759 16.7669 11.8322 16.3405 11.7104C15.8532 11.5886 15.3658 11.5276 14.9394 11.5276Z" fill="white"/>
<path fill-rule="evenodd" clip-rule="evenodd" d="M14.8781 9.3955C14.5735 9.3955 14.3298 9.21274 14.3298 8.90815C14.3298 8.60355 14.5126 8.35988 14.8172 8.35988C15.731 8.29896 16.5838 8.48172 17.4367 8.78631C18.2286 9.0909 19.0206 9.57825 19.6907 10.2484C20.3608 10.9185 20.8481 11.6495 21.1527 12.5024C21.4573 13.3552 21.6401 14.269 21.5792 15.1219C21.5792 15.4265 21.3355 15.6092 21.0309 15.6092C20.7263 15.6092 20.5435 15.3655 20.5435 15.0609C20.5435 14.3299 20.4217 13.538 20.178 12.8069C19.9344 12.1368 19.5079 11.4667 18.9597 10.9185C18.4114 10.3702 17.7413 9.94377 17.0712 9.70009C16.4011 9.45642 15.67 9.33458 14.8781 9.3955Z" fill="white"/>
<path fill-rule="evenodd" clip-rule="evenodd" d="M14.8781 7.20241C14.5735 7.20241 14.3298 6.95874 14.3298 6.71506C14.3298 6.41047 14.5735 6.1668 14.8172 6.1668C15.9746 6.10588 17.193 6.34955 18.2896 6.77598C19.3861 7.20241 20.3608 7.87252 21.2137 8.72538C22.0665 9.57825 22.7366 10.6139 23.1631 11.6495C23.5895 12.746 23.8332 13.9644 23.7722 15.1219C23.7722 15.4264 23.5286 15.6092 23.224 15.6092C22.9194 15.6092 22.7366 15.3655 22.7366 15.0609C22.7366 14.0253 22.6148 12.9897 22.1884 12.015C21.8228 11.1012 21.2746 10.1874 20.4826 9.39549C19.6907 8.60355 18.8378 8.05528 17.8631 7.68976C17.0103 7.32425 15.9137 7.1415 14.8781 7.20241Z" fill="white"/>
<path fill-rule="evenodd" clip-rule="evenodd" d="M6.59282 8.35986C5.49628 12.4414 6.5319 17.0103 9.76059 20.239C12.9893 23.4677 17.5582 24.5033 21.6397 23.4068L22.3099 19.6298L16.8881 18.4115L16.1571 20.0563C14.7559 19.6907 13.3548 18.8988 12.2583 17.8023C11.1617 16.7057 10.3698 15.3046 10.0043 13.9035L11.6491 13.1724L10.4307 7.75067L6.59282 8.35986Z" fill="white"/>
</svg>
