<svg width="200" height="200" viewBox="0 0 200 200" fill="none" xmlns="http://www.w3.org/2000/svg">
<path d="M0.5 199.5V0.5H199.5V199.5H0.5Z" stroke="#D6E3ED"/>
<path fill-rule="evenodd" clip-rule="evenodd" d="M81.4998 93.3008H136.8C140.2 93.3008 143 96.1008 143 99.5008V138.801C143 142.201 140.2 145.001 136.8 145.001H81.4998C78.0998 145.001 75.2998 142.201 75.2998 138.801V99.6008C75.2998 96.1008 78.0998 93.3008 81.4998 93.3008Z" fill="#D6E3ED"/>
<path fill-rule="evenodd" clip-rule="evenodd" d="M109.2 93.3008H136.9C140.3 93.3008 143.1 96.1008 143.1 99.5008V138.801C143.1 142.201 140.3 145.001 136.9 145.001H109.2V93.3008Z" fill="#B3CEE3"/>
<path fill-rule="evenodd" clip-rule="evenodd" d="M77.0998 54.6992C88.9998 54.6992 98.7998 64.4992 98.7998 76.3992V93.2992H88.0998V76.3992C88.0998 70.2992 83.0998 65.3992 77.0998 65.3992C70.9998 65.3992 66.0998 70.3992 66.0998 76.3992V93.2992H55.2998V76.3992C55.2998 64.4992 65.0998 54.6992 77.0998 54.6992Z" fill="#F3D316"/>
<path fill-rule="evenodd" clip-rule="evenodd" d="M77.0996 54.6992C88.9996 54.6992 98.7996 64.4992 98.7996 76.3992V93.2992H88.0996V76.3992C88.0996 70.2992 83.0996 65.3992 77.0996 65.3992V54.6992Z" fill="#F0C514"/>
<path fill-rule="evenodd" clip-rule="evenodd" d="M109.2 111.4C111.6 111.4 113.5 113.3 113.5 115.7C113.5 117.1 112.8 118.3 111.8 119.1V127.4C111.8 128.8 110.6 130 109.2 130C107.8 130 106.6 128.8 106.6 127.4V119.1C105.6 118.3 104.9 117.1 104.9 115.7C104.9 113.3 106.8 111.4 109.2 111.4Z" fill="#093494"/>
</svg>
