<svg width="200" height="200" viewBox="0 0 200 200" fill="none" xmlns="http://www.w3.org/2000/svg">
<path d="M0.5 199.5V0.5H199.5V199.5H0.5Z" stroke="#D6E3ED"/>
<path fill-rule="evenodd" clip-rule="evenodd" d="M86.1 88.0996C87.1 88.0996 88.1 88.1996 89.1 88.2996L91.9 80.5996C96.3 81.2996 100.6 82.7996 104.6 85.0996L101.8 92.7996C104.3 94.3996 106.4 96.3996 108.3 98.6996L115.7 95.1996C118.3 98.7996 120.3 102.9 121.5 107.4L114.1 110.9C114.5 112.8 114.7 114.7 114.7 116.7C114.7 117.7 114.6 118.7 114.5 119.7L122.2 122.5C121.5 126.9 120 131.2 117.7 135.2L110 132.4C108.4 134.9 106.4 137 104.1 138.9L107.6 146.3C104 148.9 99.9 150.9 95.4 152.1L91.9 144.7C90 145.1 88.1 145.3 86.1 145.3C85.1 145.3 84.1 145.2 83.1 145.1L80.3 152.8C75.9 152.1 71.6 150.6 67.6 148.3L70.4 140.6C67.9 139 65.8 137 63.9 134.7L56.5 138.2C53.9 134.6 51.9 130.5 50.7 126L58.1 122.5C57.7 120.6 57.5 118.7 57.5 116.7C57.5 115.7 57.6 114.7 57.7 113.7L50 110.9C50.7 106.5 52.2 102.2 54.5 98.1996L62.2 101C63.8 98.4996 65.8 96.3996 68.1 94.4996L64.6 87.0996C68.2 84.4996 72.3 82.4996 76.8 81.2996L80.3 88.6996C82.2 88.3996 84.1 88.0996 86.1 88.0996ZM86.1 98.2996C76 98.2996 67.8 106.5 67.8 116.6C67.8 126.7 76 134.9 86.1 134.9C96.2 134.9 104.4 126.7 104.4 116.6C104.4 106.5 96.2 98.2996 86.1 98.2996Z" fill="#F3D316"/>
<path fill-rule="evenodd" clip-rule="evenodd" d="M86.0996 93.5996C98.7996 93.5996 109.1 103.9 109.1 116.6C109.1 129.3 98.7996 139.6 86.0996 139.6C73.3996 139.6 63.0996 129.3 63.0996 116.6C63.0996 103.9 73.3996 93.5996 86.0996 93.5996ZM86.0996 98.2996C75.9996 98.2996 67.7996 106.5 67.7996 116.6C67.7996 126.7 75.9996 134.9 86.0996 134.9C96.1996 134.9 104.4 126.7 104.4 116.6C104.4 106.5 96.1996 98.2996 86.0996 98.2996Z" fill="#F0C514"/>
<path fill-rule="evenodd" clip-rule="evenodd" d="M128.6 53.7C129.2 53.7 129.8 53.7 130.4 53.8L132.1 49C134.8 49.4 137.5 50.4 139.9 51.8L138.2 56.6C139.7 57.6 141.1 58.8 142.2 60.2L146.8 58C148.4 60.2 149.6 62.7 150.3 65.5L145.7 67.7C145.9 68.8 146.1 70 146.1 71.2C146.1 71.8 146.1 72.4 146 73L150.8 74.7C150.4 77.4 149.4 80.1 148 82.5L143.2 80.8C142.2 82.3 141 83.7 139.6 84.8L141.8 89.4C139.6 91 137.1 92.2 134.3 92.9L132.1 88.3C131 88.5 129.8 88.7 128.6 88.7C128 88.7 127.4 88.7 126.8 88.6L125.1 93.4C122.4 93 119.7 92 117.3 90.6L119 85.8C117.5 84.8 116.1 83.6 115 82.2L110.4 84.4C108.8 82.2 107.6 79.7 106.9 76.9L111.5 74.7C111.3 73.6 111.1 72.4 111.1 71.1C111.1 70.5 111.1 69.9 111.2 69.3L106.4 67.6C106.8 64.9 107.8 62.2 109.2 59.8L114 61.5C115 60 116.2 58.6 117.6 57.5L115.4 52.9C117.6 51.3 120.1 50.1 122.9 49.4L125 54C126.2 53.8 127.4 53.7 128.6 53.7ZM128.6 59.9C122.4 59.9 117.3 64.9 117.3 71.2C117.3 77.4 122.3 82.5 128.6 82.5C134.8 82.5 139.9 77.5 139.9 71.2C139.9 65 134.8 59.9 128.6 59.9Z" fill="#D6E3ED"/>
<path fill-rule="evenodd" clip-rule="evenodd" d="M128.6 57C136.4 57 142.7 63.3 142.7 71.1C142.7 78.9 136.4 85.2 128.6 85.2C120.8 85.2 114.5 78.9 114.5 71.1C114.4 63.4 120.8 57 128.6 57ZM128.6 59.9C122.4 59.9 117.3 64.9 117.3 71.2C117.3 77.4 122.3 82.5 128.6 82.5C134.8 82.5 139.9 77.5 139.9 71.2C139.9 65 134.8 59.9 128.6 59.9Z" fill="#B3CEE3"/>
<path fill-rule="evenodd" clip-rule="evenodd" d="M88.4 50.0992C88.8 50.0992 89.2 50.0992 89.5 50.1992L90.6 47.1992C92.3 47.4992 93.9 47.9992 95.5 48.8992L94.4 51.8992C95.3 52.4992 96.2 53.2992 96.9 54.1992L99.7 52.8992C100.7 54.2992 101.5 55.8992 101.9 57.5992L99 58.7992C99.1 59.4992 99.2 60.2992 99.2 60.9992C99.2 61.3992 99.2 61.7992 99.1 62.0992L102.1 63.1992C101.8 64.8992 101.3 66.4992 100.4 68.0992L97.4 66.9992C96.8 67.8992 96 68.7992 95.1 69.4992L96.4 72.2992C95 73.2992 93.4 74.0992 91.7 74.4992L90.4 71.6992C89.7 71.7992 88.9 71.8992 88.2 71.8992C87.8 71.8992 87.4 71.8992 87.1 71.7992L86 74.7992C84.3 74.4992 82.7 73.9992 81.1 73.0992L82.2 70.0992C81.3 69.4992 80.4 68.6992 79.7 67.7992L77 69.2992C76 67.8992 75.2 66.2992 74.8 64.5992L77.6 63.2992C77.5 62.5992 77.4 61.7992 77.4 61.0992C77.4 60.6992 77.4 60.2992 77.5 59.9992L74.5 58.8992C74.8 57.1992 75.3 55.5992 76.2 53.9992L79.2 55.0992C79.8 54.1992 80.6 53.2992 81.5 52.5992L80.2 49.7992C81.6 48.7992 83.2 47.9992 84.9 47.5992L86.2 50.3992C86.9 50.1992 87.6 50.0992 88.4 50.0992ZM88.4 53.9992C84.5 53.9992 81.4 57.0992 81.4 60.9992C81.4 64.8992 84.5 67.9992 88.4 67.9992C92.3 67.9992 95.4 64.8992 95.4 60.9992C95.4 57.0992 92.2 53.9992 88.4 53.9992Z" fill="#3F569B"/>
<path fill-rule="evenodd" clip-rule="evenodd" d="M88.3996 52.1992C93.2996 52.1992 97.1996 56.1992 97.1996 60.9992C97.1996 65.7992 93.1996 69.7992 88.3996 69.7992C83.4996 69.7992 79.5996 65.7992 79.5996 60.9992C79.5996 56.1992 83.4996 52.1992 88.3996 52.1992ZM88.3996 53.9992C84.4996 53.9992 81.3996 57.0992 81.3996 60.9992C81.3996 64.8992 84.4996 67.9992 88.3996 67.9992C92.2996 67.9992 95.3996 64.8992 95.3996 60.9992C95.3996 57.0992 92.1996 53.9992 88.3996 53.9992Z" fill="#093494"/>
</svg>
